<svg width="719" height="492" viewBox="0 0 719 492" fill="none" xmlns="http://www.w3.org/2000/svg">
<g clip-path="url(#clip0)">
<path d="M103.139 482.483C101.504 470.584 99.8215 458.532 100.969 446.505C101.988 435.824 105.251 425.392 111.894 416.838C115.42 412.306 119.711 408.423 124.573 405.364C125.841 404.565 127.008 406.572 125.746 407.367C117.332 412.677 110.825 420.518 107.162 429.759C103.116 440.036 102.466 451.239 103.164 462.156C103.585 468.758 104.479 475.316 105.379 481.866C105.45 482.163 105.406 482.475 105.255 482.74C105.105 483.004 104.859 483.202 104.568 483.293C104.271 483.373 103.955 483.333 103.687 483.181C103.42 483.03 103.223 482.779 103.139 482.483Z" fill="#0A87D9"/>
<path d="M198.551 489.525C201.181 483.203 203.833 476.793 207.869 471.21C211.453 466.252 216.068 462.062 221.804 459.769C224.845 458.556 228.076 457.882 231.349 457.777C232.203 457.749 232.198 459.072 231.348 459.1C225.678 459.289 220.216 461.271 215.747 464.76C210.792 468.648 207.239 473.969 204.43 479.537C202.732 482.905 201.278 486.387 199.831 489.866C199.78 490.032 199.668 490.173 199.518 490.26C199.367 490.347 199.189 490.373 199.02 490.334C198.851 490.288 198.707 490.177 198.619 490.026C198.531 489.874 198.507 489.694 198.551 489.525Z" fill="#F2F2F2"/>
<path d="M98.5164 489.323C106.39 475.411 115.522 459.949 131.84 455.007C136.377 453.637 141.135 453.147 145.857 453.561C147.345 453.689 146.973 455.98 145.488 455.852C137.573 455.196 129.674 457.283 123.12 461.762C116.813 466.049 111.902 472.01 107.746 478.33C105.2 482.202 102.919 486.238 100.638 490.268C99.9095 491.556 97.779 490.627 98.5164 489.323Z" fill="#F2F2F2"/>
<path d="M419.993 481.072L410.902 478.344L417.111 442.024L430.53 446.05L419.993 481.072Z" fill="#A0616A"/>
<path d="M419.665 490.569L390.349 481.773L390.46 481.402C390.91 479.906 391.651 478.513 392.641 477.302C393.63 476.092 394.848 475.088 396.226 474.347C397.604 473.607 399.115 473.145 400.671 472.988C402.228 472.83 403.8 472.981 405.299 473.43L405.3 473.431L423.205 478.803L419.665 490.569Z" fill="#2F2E41"/>
<path d="M505.789 481.379L496.295 481.378L491.779 444.81L505.79 444.811L505.789 481.379Z" fill="#A0616A"/>
<path d="M508.209 490.569L477.599 490.568V490.181C477.599 488.618 477.907 487.071 478.506 485.628C479.105 484.184 479.982 482.872 481.089 481.767C482.195 480.663 483.509 479.786 484.954 479.188C486.4 478.59 487.949 478.283 489.514 478.283H489.514L508.21 478.283L508.209 490.569Z" fill="#2F2E41"/>
<path d="M423.109 360.36C522.754 360.36 603.532 279.69 603.532 180.18C603.532 80.6693 522.754 0 423.109 0C323.465 0 242.687 80.6693 242.687 180.18C242.687 279.69 323.465 360.36 423.109 360.36Z" fill="#0A87D9"/>
<path d="M101.758 435.637C106.659 437.358 111.92 437.789 117.036 436.889C122.152 435.989 126.95 433.788 130.967 430.499C141.198 421.924 144.405 407.796 147.015 394.714L154.735 356.022L138.573 367.135C126.95 375.127 115.066 383.376 107.018 394.952C98.9708 406.528 95.4581 422.331 101.924 434.857" fill="#0A87D9"/>
<path d="M211.394 466.094C213.307 468.351 215.769 470.078 218.544 471.108C221.32 472.138 224.314 472.437 227.238 471.976C234.743 470.705 240.398 464.682 245.458 459.002L260.421 442.199L249.267 443.011C241.246 443.595 233.022 444.229 225.724 447.604C218.425 450.98 212.137 457.738 211.701 465.758" fill="#0A87D9"/>
<path d="M118.895 461.427C120.997 464.617 123.886 467.213 127.284 468.965C130.682 470.716 134.475 471.564 138.296 471.427C148.117 470.962 156.305 464.116 163.675 457.617L185.476 438.395L171.048 437.706C160.672 437.21 150.028 436.747 140.145 439.943C130.263 443.138 121.148 450.828 119.341 461.044" fill="#0A87D9"/>
<path d="M438.537 251.851C454.193 243.258 473.676 244.983 490.544 250.857C507.411 256.732 522.696 266.357 539.076 273.476C589.13 295.229 649.458 291.722 696.645 264.314C701.108 274.681 696.32 286.539 691.061 296.527C685.802 306.514 679.808 317.339 681.973 328.415C684.744 342.587 699.623 351.084 705.652 364.209C711.375 376.668 708.303 391.3 703.913 404.287C699.522 417.275 693.824 430.359 694.57 444.047C695.316 457.734 705.274 472.207 719 472.218C698.658 475.375 677.917 478.533 657.587 475.299C637.258 472.064 617.036 461.327 607.597 443.057C602.879 433.925 601.06 423.426 595.642 414.691C586.413 399.812 568.702 392.815 551.991 387.542C535.279 382.268 517.396 377.188 505.63 364.217C494.419 351.858 490.868 334.641 484.928 319.056C474.925 292.965 457.55 270.337 434.915 253.92" fill="#0A87D9"/>
<path d="M456.676 187.097C451.181 184.544 444.434 183.707 438.842 186.079C433.25 188.451 429.438 194.532 431.246 199.914C432.066 202.354 433.933 204.754 433.205 207.218C432.645 209.115 430.692 210.367 428.774 211.257C426.856 212.148 424.758 212.896 423.37 214.398C421.983 215.9 421.694 218.485 423.427 219.65C423.998 220.034 424.711 220.216 425.265 220.62C425.737 221.003 426.077 221.523 426.239 222.109C426.4 222.694 426.375 223.315 426.167 223.885C425.705 225.033 424.943 226.034 423.959 226.786C421.992 228.48 419.392 230.419 420.003 232.824C420.229 233.467 420.608 234.046 421.106 234.511C421.605 234.977 422.208 235.315 422.865 235.498C424.231 235.891 425.647 236.078 427.068 236.052L485.117 237.878C487.034 238.022 488.961 237.914 490.849 237.558C491.767 237.391 492.64 237.037 493.415 236.517C494.189 235.998 494.848 235.324 495.35 234.539C496.462 232.484 495.732 229.953 494.359 228.034C492.986 226.115 491.043 224.601 489.438 222.839C487.833 221.077 486.519 218.878 486.802 216.601C487.029 214.778 488.232 213.202 489.097 211.546C489.961 209.89 490.463 207.82 489.344 206.296C487.766 204.149 483.98 204.343 482.186 202.342C480.833 200.832 481.094 198.659 480.96 196.712C480.636 192.028 477.389 187.605 472.767 185.551C470.417 184.543 467.86 184.108 465.308 184.282C462.756 184.455 460.282 185.233 458.091 186.549L456.676 187.097Z" fill="#2F2E41"/>
<path d="M492.61 453.721C491.782 453.72 490.981 453.425 490.351 452.888C489.721 452.352 489.302 451.608 489.171 450.791L475.076 362.979C474.982 362.397 474.701 361.862 474.276 361.454C473.85 361.046 473.303 360.788 472.717 360.719C472.131 360.65 471.539 360.774 471.03 361.072C470.521 361.369 470.123 361.825 469.897 362.369L433.377 450.167C433.037 450.977 432.404 451.63 431.603 451.995C430.802 452.359 429.893 452.409 429.058 452.134L415.867 447.743C415.046 447.472 414.355 446.905 413.93 446.152C413.506 445.4 413.377 444.516 413.57 443.674L443.498 311.423C443.644 310.786 443.967 310.202 444.428 309.739C444.89 309.275 445.472 308.95 446.109 308.8L486.245 299.496C486.738 299.384 487.25 299.379 487.745 299.482C488.241 299.584 488.708 299.792 489.116 300.091C515.545 319.268 513.312 381.923 508.387 449.955C508.325 450.807 507.952 451.606 507.339 452.201C506.726 452.796 505.915 453.146 505.061 453.183L492.763 453.718C492.712 453.719 492.661 453.721 492.61 453.721Z" fill="#2F2E41"/>
<path d="M458.824 237.429C469.328 237.429 477.843 228.925 477.843 218.436C477.843 207.946 469.328 199.443 458.824 199.443C448.321 199.443 439.806 207.946 439.806 218.436C439.806 228.925 448.321 237.429 458.824 237.429Z" fill="#A0616A"/>
<path d="M459.645 316.875C455.08 316.846 450.578 315.807 446.463 313.833L446.322 313.767L446.265 313.621L429.207 269.484L428.883 261.815C428.774 259.25 429.204 256.692 430.146 254.303C431.087 251.915 432.519 249.75 434.349 247.948C436.18 246.145 438.368 244.746 440.772 243.839C443.177 242.932 445.745 242.539 448.311 242.683L466.421 243.702C471.099 243.968 475.5 246.004 478.728 249.396C481.956 252.788 483.768 257.281 483.795 261.96C484.266 262.863 487.606 269.919 481.059 276.549C480.815 278.058 478.525 293.752 487.166 302.383L487.409 302.625L487.197 302.895C487.059 303.07 475.961 316.873 459.645 316.875Z" fill="#3F3D56"/>
<path d="M485.076 320.205C486.147 319.817 487.119 319.2 487.924 318.397C488.73 317.594 489.349 316.624 489.739 315.556C490.128 314.487 490.279 313.347 490.179 312.214C490.079 311.082 489.733 309.985 489.163 309.001L507.25 288.088L492.991 286.235L478.001 306.378C476.409 307.444 475.264 309.056 474.782 310.908C474.301 312.761 474.517 314.725 475.389 316.43C476.261 318.134 477.729 319.46 479.514 320.156C481.3 320.851 483.279 320.869 485.076 320.205Z" fill="#A0616A"/>
<path d="M496.385 304.064C495.706 304.064 495.041 303.865 494.474 303.491L485.528 297.632C484.776 297.141 484.243 296.379 484.041 295.505C483.839 294.63 483.983 293.712 484.444 292.942L490.921 282.076C491.271 281.488 491.493 280.833 491.572 280.153C491.651 279.474 491.585 278.785 491.378 278.133C491.172 277.48 490.829 276.879 490.374 276.368C489.918 275.858 489.359 275.449 488.734 275.169L470.128 266.839C467.84 265.801 465.972 264.019 464.831 261.783C463.69 259.547 463.343 256.99 463.847 254.531C464.195 252.873 464.921 251.318 465.969 249.986C467.017 248.654 468.358 247.581 469.889 246.851C471.42 246.122 473.099 245.754 474.795 245.778C476.491 245.802 478.159 246.216 479.668 246.989L507.895 261.433C509.799 262.407 511.47 263.781 512.793 265.461C514.116 267.14 515.06 269.085 515.561 271.162C516.061 273.24 516.106 275.401 515.692 277.497C515.279 279.594 514.416 281.576 513.164 283.309L499.21 302.618C498.888 303.066 498.464 303.43 497.973 303.682C497.481 303.933 496.937 304.064 496.385 304.064Z" fill="#3F3D56"/>
<path d="M439.368 215.736C445.374 215.254 450.36 209.262 449.736 203.277C449.665 205.744 450.505 208.151 452.096 210.039C453.687 211.928 455.917 213.167 458.363 213.52C461.118 213.823 464.138 212.991 466.536 214.379C469.192 215.916 470.042 219.649 472.809 220.977C475.483 222.26 478.878 220.51 480.199 217.858C481.52 215.206 481.196 212.02 480.321 209.189C479.072 205.153 476.799 201.508 473.722 198.61C470.646 195.711 466.87 193.656 462.763 192.646C458.656 191.636 454.357 191.705 450.284 192.845C446.211 193.986 442.503 196.16 439.521 199.156C436.995 201.692 434.99 204.926 434.665 208.488C434.34 212.05 435.994 215.916 439.198 217.516L439.368 215.736Z" fill="#2F2E41"/>
<path d="M395.121 163.124C396.123 163.664 396.994 164.416 397.674 165.328C398.353 166.24 398.824 167.29 399.053 168.403C399.282 169.517 399.264 170.667 399 171.773C398.736 172.879 398.233 173.913 397.525 174.804L412.36 198.13L397.983 197.884L386.099 175.771C384.68 174.484 383.783 172.723 383.578 170.82C383.372 168.917 383.873 167.005 384.985 165.446C386.097 163.887 387.743 162.789 389.611 162.362C391.479 161.934 393.44 162.205 395.121 163.124V163.124Z" fill="#A0616A"/>
<path d="M407.079 179.734L426.185 224.819L446.216 258.74C447.062 260.172 447.57 261.777 447.704 263.434C447.837 265.091 447.592 266.757 446.986 268.305C446.38 269.853 445.43 271.244 444.208 272.372C442.985 273.5 441.522 274.336 439.928 274.817C437.401 275.566 434.689 275.388 432.281 274.314C429.874 273.241 427.931 271.343 426.802 268.964L388.196 186.582C387.986 186.134 387.874 185.647 387.867 185.153C387.861 184.659 387.96 184.169 388.157 183.716C388.355 183.263 388.647 182.857 389.014 182.526C389.381 182.195 389.815 181.945 390.286 181.794L402.804 177.778C403.041 177.702 403.286 177.651 403.534 177.625C404.273 177.551 405.017 177.716 405.655 178.095C406.293 178.475 406.792 179.05 407.079 179.734Z" fill="#3F3D56"/>
<path d="M462.949 83.6813V147.092C462.949 147.297 462.867 147.494 462.722 147.639C462.577 147.784 462.38 147.865 462.175 147.865C461.969 147.865 461.772 147.784 461.627 147.639C461.482 147.494 461.4 147.297 461.4 147.092V83.6813C461.4 83.4762 461.482 83.2795 461.627 83.1345C461.772 82.9894 461.969 82.908 462.175 82.908C462.38 82.908 462.577 82.9894 462.722 83.1345C462.867 83.2795 462.949 83.4762 462.949 83.6813Z" fill="#CCCCCC"/>
<path d="M530.182 137.476L508.28 159.348C508.135 159.493 507.938 159.574 507.733 159.574C507.528 159.574 507.331 159.492 507.186 159.347C507.041 159.202 506.96 159.006 506.96 158.801C506.959 158.596 507.04 158.4 507.185 158.255L529.087 136.382C529.159 136.31 529.244 136.253 529.338 136.214C529.432 136.175 529.533 136.155 529.635 136.155C529.737 136.155 529.837 136.175 529.932 136.213C530.026 136.252 530.111 136.309 530.183 136.381C530.255 136.453 530.312 136.539 530.351 136.633C530.39 136.727 530.41 136.827 530.41 136.929C530.41 137.031 530.39 137.131 530.351 137.225C530.311 137.319 530.254 137.404 530.182 137.476Z" fill="#CCCCCC"/>
<path d="M394.167 137.476L416.069 159.348C416.214 159.493 416.411 159.575 416.617 159.575C416.822 159.575 417.019 159.493 417.164 159.348C417.309 159.203 417.391 159.007 417.391 158.802C417.391 158.597 417.309 158.4 417.164 158.255L395.262 136.382C395.191 136.31 395.105 136.253 395.011 136.214C394.917 136.175 394.816 136.155 394.714 136.155C394.613 136.155 394.512 136.175 394.418 136.213C394.324 136.252 394.238 136.309 394.166 136.381C394.094 136.453 394.037 136.539 393.998 136.633C393.959 136.727 393.939 136.827 393.939 136.929C393.939 137.031 393.96 137.131 393.999 137.225C394.038 137.319 394.095 137.404 394.167 137.476Z" fill="#CCCCCC"/>
</g>
<defs>
<clipPath id="clip0">
<rect width="719" height="491.213" fill="white"/>
</clipPath>
</defs>
</svg>
