<svg width="778" height="550" viewBox="0 0 778 550" fill="none" xmlns="http://www.w3.org/2000/svg">
<path d="M144.233 549.01C124.735 550.285 103.491 548.936 80.8903 549.01V496.098C100.805 499.268 122.043 498.942 144.233 496.098V549.01Z" fill="#0A87D9"/>
<path d="M313.586 380.467L269.089 548.104L274.694 549.25L321.433 380.467H313.586Z" fill="#0A87D9"/>
<path d="M367.53 380.467L412.025 548.104L406.42 549.25L359.681 380.467H367.53Z" fill="#E6E6E6"/>
<path d="M337.129 377.028L344.591 548.384L351.071 548.679L342.735 374.734L337.129 377.028Z" fill="#0A87D9"/>
<path d="M417.262 522.652C417.262 522.652 411.708 545.014 418.997 546.907C426.287 548.8 487.448 550.401 487.487 539.832C487.525 529.262 447.792 520.531 447.792 520.531L433.113 510.9L417.262 522.652Z" fill="#2F2E41"/>
<path d="M104.542 396.738L94.5371 380.207C97.7696 371.62 101.473 363.226 105.63 355.066L112.199 360.718L107.076 352.254C112.314 342.216 116.405 335.908 116.405 335.908C116.405 335.908 136.457 369.705 142.681 405.179L129.018 425.847L143.925 414.033C144.367 418.16 144.554 422.311 144.486 426.461C143.662 468.306 129.63 501.953 113.143 501.614C96.6567 501.275 83.9595 467.078 84.7832 425.233C85.0385 412.26 88.1757 398.747 92.3818 386.274L104.542 396.738Z" fill="#0A87D9"/>
<path d="M59.2701 415.192L42.3491 406.329C40.7756 397.27 39.7031 388.127 39.1366 378.944L47.6168 380.311L38.9532 375.773C38.363 364.411 38.6757 356.848 38.6757 356.848C38.6757 356.848 72.9258 375.181 96.1855 402.26L94.937 427.174L101.727 409.181C104.191 412.48 106.449 415.935 108.489 419.524C128.936 455.78 133.932 492.001 119.648 500.424C105.363 508.848 77.207 486.285 56.7596 450.029C50.4207 438.789 46.2755 425.563 43.5711 412.662L59.2701 415.192Z" fill="#0A87D9"/>
<path d="M603.82 306.994L396.902 341.063L396.025 135.365L602.943 0L603.82 306.994Z" fill="#E6E6E6"/>
<path d="M584.53 276.511L405.669 315.959V143.821L584.53 44.5527V276.511Z" fill="white"/>
<path d="M566.996 118.718L416.191 187.775V163.545L566.996 87.3649V118.718Z" fill="#3F3D56"/>
<path d="M566.996 183.27L416.191 237.66V213.753L566.996 152.333V183.27Z" fill="#0A87D9"/>
<path d="M474.454 153.316C474.484 153.193 474.551 153.084 474.647 153.005C474.743 152.926 474.861 152.88 474.984 152.876C475.108 152.872 475.229 152.909 475.329 152.982C475.43 153.055 475.504 153.159 475.542 153.279L477.983 161.148L480.908 170.575C480.951 170.713 480.942 170.862 480.882 170.993C480.823 171.124 480.718 171.228 480.587 171.283L474.934 173.692L469.966 175.809C469.87 175.85 469.764 175.863 469.661 175.846C469.557 175.83 469.46 175.784 469.381 175.714C469.302 175.645 469.243 175.554 469.211 175.452C469.179 175.35 469.175 175.241 469.2 175.137L471.917 163.851L474.454 153.316Z" fill="#E6E6E6"/>
<path d="M465.385 211.989C465.433 211.787 465.545 211.607 465.703 211.476C465.861 211.345 466.056 211.271 466.26 211.264C466.463 211.257 466.663 211.318 466.829 211.438C466.995 211.558 467.118 211.731 467.179 211.929L469.226 218.525L472.049 227.624C472.12 227.851 472.105 228.097 472.006 228.313C471.908 228.53 471.734 228.701 471.519 228.792L466.177 231.069L461.881 232.899C461.722 232.967 461.547 232.988 461.377 232.961C461.206 232.933 461.047 232.858 460.916 232.743C460.784 232.628 460.687 232.478 460.634 232.31C460.582 232.142 460.576 231.962 460.617 231.791L463.16 221.228L465.385 211.989Z" fill="#E6E6E6"/>
<path d="M566.996 247.822L416.191 287.545V262.166L566.996 214.982V247.822Z" fill="#F2F2F2"/>
<path d="M563.488 136.159C563.488 141.559 561.122 146.928 558.227 148.141C555.358 149.344 553.05 146.003 553.05 140.689C553.05 135.375 555.358 130.031 558.227 128.743C561.122 127.444 563.488 130.76 563.488 136.159Z" fill="#3F3D56"/>
<path d="M559.981 137.681C559.981 139.481 559.195 141.277 558.228 141.692C557.263 142.106 556.483 140.989 556.483 139.199C556.483 137.409 557.263 135.615 558.228 135.192C559.195 134.768 559.981 135.881 559.981 137.681Z" fill="white"/>
<path d="M563.488 198.918C563.488 204.318 561.122 209.686 558.227 210.9C555.358 212.102 553.05 208.762 553.05 203.448C553.05 198.133 555.358 192.79 558.227 191.502C561.122 190.203 563.488 193.518 563.488 198.918Z" fill="#0A87D9"/>
<path d="M559.981 200.44C559.981 202.24 559.195 204.036 558.228 204.451C557.263 204.865 556.483 203.748 556.483 201.958C556.483 200.168 557.263 198.374 558.228 197.951C559.195 197.526 559.981 198.64 559.981 200.44Z" fill="white"/>
<path d="M563.488 261.677C563.488 267.076 561.122 272.445 558.227 273.658C555.358 274.861 553.05 271.52 553.05 266.206C553.05 260.892 555.358 255.548 558.227 254.261C561.122 252.962 563.488 256.277 563.488 261.677Z" fill="#F2F2F2"/>
<path d="M559.981 263.198C559.981 264.998 559.195 266.795 558.228 267.21C557.263 267.623 556.483 266.506 556.483 264.716C556.483 262.926 557.263 261.132 558.228 260.709C559.195 260.285 559.981 261.399 559.981 263.198Z" fill="white"/>
<path d="M479.403 263.992C479.451 263.79 479.563 263.61 479.721 263.479C479.879 263.348 480.074 263.273 480.278 263.267C480.481 263.26 480.681 263.321 480.847 263.441C481.013 263.561 481.136 263.733 481.197 263.931L483.244 270.527L486.067 279.626C486.138 279.854 486.123 280.1 486.024 280.316C485.926 280.532 485.752 280.703 485.537 280.795L480.195 283.071L475.899 284.902C475.74 284.97 475.565 284.991 475.395 284.963C475.224 284.936 475.065 284.86 474.934 284.745C474.802 284.631 474.705 284.481 474.652 284.313C474.6 284.145 474.594 283.965 474.635 283.793L477.178 273.231L479.403 263.992Z" fill="#E6E6E6"/>
<path d="M443.809 252.96L451.967 245.266C451.967 245.266 470.433 232.259 463.983 225.109C457.533 217.959 444.532 234.633 444.532 234.633L436.464 240.036L443.809 252.96Z" fill="#A0616A"/>
<path d="M335.951 256.541L331.199 263.229C331.199 263.229 324.558 289.344 358.164 290.731C358.164 290.731 401.085 312.008 411.709 298.678C422.334 285.348 451.65 253.284 451.65 253.284L434.405 235.362L399.261 272.922L365.167 255.452C365.167 255.452 347.605 245.548 335.951 256.541Z" fill="#2F2E41"/>
<path d="M357.87 374.316C357.87 378.663 346.235 383.328 330.963 384.827C314.572 386.436 300.376 383.825 300.376 378.884C300.376 373.943 314.572 369.076 330.963 368.08C346.235 367.153 357.87 369.97 357.87 374.316Z" fill="#E6E6E6"/>
<path d="M374.127 344.927L385.338 352.952C385.338 352.952 433.547 388.491 429.062 402.248C424.578 416.006 399.913 471.034 399.913 471.034L368.521 460.716L404.397 402.248L385.338 383.906L375.248 358.684L374.127 344.927Z" fill="#2F2E41"/>
<path d="M330.403 324.291C330.403 324.291 307.98 359.831 321.433 370.149C334.887 380.466 373.006 420.592 373.006 420.592L380.854 438.934L408.882 531.795L443.637 513.452L412.245 441.227C412.245 441.227 408.882 414.859 397.671 399.956C386.459 385.052 381.975 363.27 381.975 363.27L385.338 352.952L365.264 320.107L330.403 324.291Z" fill="#2F2E41"/>
<path d="M391.373 464.465L371.222 458.194C371.222 458.194 349.462 457.277 350.583 465.302C351.704 473.327 369.642 526.063 375.248 522.624C380.854 519.185 376.369 503.135 376.369 503.135L391.373 464.465Z" fill="#2F2E41"/>
<path d="M346.659 212.515L335.448 225.125L353.385 254.932L361.234 232.004L346.659 212.515Z" fill="#A0616A"/>
<path d="M357.31 256.652L337.397 222.933L330.403 224.552V236.016L328.16 332.317L365.158 326.584C365.158 326.584 367.4 264.677 357.31 256.652Z" fill="#0A87D9"/>
<path d="M347.22 255.506L330.403 224.552L315.828 231.431L290.042 339.195L274.346 370.149C274.346 370.149 325.918 396.517 338.25 370.149C350.583 343.781 351.704 285.313 351.704 285.313L347.22 255.506Z" fill="#2F2E41"/>
<path d="M322.555 236.016L315.828 231.431C315.828 231.431 290.042 225.699 290.042 260.091C290.042 260.091 270.982 304.802 284.436 315.12C297.89 325.438 330.403 354.099 330.403 354.099L347.22 335.756L309.101 301.363L324.797 265.824C324.797 265.824 333.766 247.481 322.555 236.016Z" fill="#2F2E41"/>
<path d="M330.403 346.074L338.251 354.099C338.251 354.099 351.704 372.441 358.431 365.563C365.158 358.684 348.341 346.074 348.341 346.074L342.735 338.049L330.403 346.074Z" fill="#A0616A"/>
<path d="M356.01 246.248L375.248 294.484C375.248 294.484 383.096 318.559 383.096 327.731V352.952L361.794 324.291C361.794 324.291 350.226 249.601 356.01 246.248Z" fill="#2F2E41"/>
<path d="M360.673 233.723C371.819 233.723 380.854 224.485 380.854 213.088C380.854 201.691 371.819 192.452 360.673 192.452C349.528 192.452 340.493 201.691 340.493 213.088C340.493 224.485 349.528 233.723 360.673 233.723Z" fill="#A0616A"/>
<path d="M382.192 209.382C382.192 209.382 386.134 191.916 382.192 187.885V190.572C382.192 190.572 379.564 181.167 374.308 183.854C374.308 183.854 367.739 178.48 366.425 181.167C358.694 174.019 324.412 180.72 341.053 218.247C341.053 218.247 344.088 206.695 344.088 210.726C344.088 210.726 351.971 202.664 353.285 199.977C354.599 197.29 376.936 214.757 382.192 209.382Z" fill="#2F2E41"/>
</svg>
